# xmcd
#
# Track frame offsets:
#	150
#	31275
#	56590
#	75905
#	98975
#	118687
#	140972
#	159315
#	181162
#	201640
#	220635
#	237365
#	252872
#	266805
#
# Disc length: 3693 seconds
#
# Revision: 1
# Processed by: cddbd v1.5.1PL0 Copyright (c) Steve Scherf et al.
# Submitted via: EasyCDDAExtractor 8.2.1.1
#
DISCID=c60e6b0e
DTITLE=ORHAN GENCEBAY - ORHAN GENCEBAY  KLASIKLER 2.ALBUM  2.CD
DYEAR=2002
DGENRE=Alternative
TTITLE0=BEN TOPRAKTAN BIR CANIM (NEW VERSION)
TTITLE1=SARHASUN BIRI (NEW VERSION)
TTITLE2=BEN DOGARKEN OLMUSUM (NEW VERSION)
TTITLE3=GONUL FIRTINASI (NEW VERSION)
TTITLE4=FELEKLE SOHBET (NEW VERSION)
TTITLE5=DUYUN BENI (NEW VERSION)
TTITLE6=BEN O ZAMAN OLURUM (NEW VERSION)
TTITLE7=BANA COKMU GORUYORSUN (NEW VERSION)
TTITLE8=SEVENLERIN KADERI (NEW VERSION)
TTITLE9=ZERZELE (NEW VERSION)
TTITLE10=SEVGILIM DINLE (NEW VERSION)
TTITLE11=KOCA DUNYA (NEW VERSION)
TTITLE12=GENCEBAY ORYANTAL (NEW VERSION)
TTITLE13=NIHAVENT UVERTUR
EXTD=
EXTT0=
EXTT1=
EXTT2=
EXTT3=
EXTT4=
EXTT5=
EXTT6=
EXTT7=
EXTT8=
EXTT9=
EXTT10=
EXTT11=
EXTT12=
EXTT13=
PLAYORDER=
